<svg xmlns="http://www.w3.org/2000/svg" width="700.04" height="691.32" viewBox="0 0 700.04 691.32"><title>logo</title><path d="M350,25.28s54.19,9.77,171.81,36.88c111.1,25.61,150,35.85,150,35.85s18.33,100.4-32.07,285.82C599.1,533.52,465.68,629.69,350,665.35,234.32,629.69,100.9,533.52,60.22,383.83,9.82,198.41,28.15,98,28.15,98s38.94-10.24,150-35.85C295.81,35.05,350,25.28,350,25.28Z" transform="translate(0 -0.06)" fill="#fff"/><path d="M350,691.38l-7.33-2.26C229.26,654.17,81,555,36.22,390.36-15.07,201.69,2.89,97.87,3.68,93.54L6.52,78l15.3-4c1.61-.43,40.58-10.64,150.79-36C289.46,11,343.35,1.26,345.61.86L350,.06l4.41.8c2.24.4,56.13,10.18,173,37.12,110.21,25.4,149.18,35.61,150.79,36l15.3,4,2.84,15.56c.79,4.33,18.75,108.12-32.53,296.82C619.09,555,470.83,654.17,357.37,689.12ZM51,117.9C48.45,151.85,47.23,241,84.26,377.31,122.71,518.92,249.71,606.1,350,639.24,450.29,606.1,577.29,518.92,615.78,377.31c37-136.22,35.81-225.39,33.25-259.41-20.66-5.13-62.21-15.23-132.81-31.5C419,64,365.08,53.44,350,50.58,334.9,53.44,280.83,64,183.78,86.4,113.18,102.69,71.62,112.77,51,117.9Z" transform="translate(0 -0.06)" fill="#fff"/><path d="M536.32,429.46l-93.41-142L530.69,177.6a9.73,9.73,0,0,0-7.6-15.8H476.43a9.75,9.75,0,0,0-7.7,3.77l-69.14,89.26L374,289.94l-1.46-.09a93.83,93.83,0,0,0,6.13-34.49q0-27.37-13-48.84T328.48,173.4q-24.18-11.65-56-11.65H171.8a9.73,9.73,0,0,0-9.74,9.72h0V434.81a9.73,9.73,0,0,0,9.73,9.73H210.6a9.73,9.73,0,0,0,9.73-9.73h0V344.9h51.08q24.81,0,44.28-5.85v95.76a9.73,9.73,0,0,0,9.73,9.73h38.8a9.73,9.73,0,0,0,9.74-9.72h0V363.74l30.3-32.63,69.77,109a9.74,9.74,0,0,0,8.19,4.48h46a9.73,9.73,0,0,0,8.1-15.13ZM272.38,297.69h-52V208.94h53.41q21.57.39,33.8,13.21t12.24,33.6q0,20.21-12.14,31.08T272.38,297.69Z" transform="translate(0 -0.06)" fill="#fff"/></svg>